<svg width="100%" height="60" viewBox="0 0 700 60" xmlns="http://www.w3.org/2000/svg">
  <clipPath id="clip">
    <rect width="700" height="60"/>
  </clipPath>
  <g clip-path="url(#clip)">
    <g>
      <animateTransform attributeName="transform" type="translate" from="0 0" to="-1326 0" dur="16s" repeatCount="indefinite"/>
      <rect x="0" y="6" width="78" height="48" rx="10" fill="#E44D26"/>
      <text x="39.0" y="35.0" font-family="Segoe UI, Arial, sans-serif" font-size="15" font-weight="700" fill="#ffffff" text-anchor="middle">HTML</text>
      <rect x="102" y="6" width="78" height="48" rx="10" fill="#1572B6"/>
      <text x="141.0" y="35.0" font-family="Segoe UI, Arial, sans-serif" font-size="15" font-weight="700" fill="#ffffff" text-anchor="middle">CSS</text>
      <rect x="204" y="6" width="78" height="48" rx="10" fill="#F7DF1E"/>
      <text x="243.0" y="35.0" font-family="Segoe UI, Arial, sans-serif" font-size="15" font-weight="700" fill="#111111" text-anchor="middle">JS</text>
      <rect x="306" y="6" width="78" height="48" rx="10" fill="#61DAFB"/>
      <text x="345.0" y="35.0" font-family="Segoe UI, Arial, sans-serif" font-size="15" font-weight="700" fill="#111111" text-anchor="middle">React</text>
      <rect x="408" y="6" width="78" height="48" rx="10" fill="#339933"/>
      <text x="447.0" y="35.0" font-family="Segoe UI, Arial, sans-serif" font-size="15" font-weight="700" fill="#ffffff" text-anchor="middle">Node</text>
      <rect x="510" y="6" width="78" height="48" rx="10" fill="#404040"/>
      <text x="549.0" y="35.0" font-family="Segoe UI, Arial, sans-serif" font-size="15" font-weight="700" fill="#ffffff" text-anchor="middle">Express</text>
      <rect x="612" y="6" width="78" height="48" rx="10" fill="#47A248"/>
      <text x="651.0" y="35.0" font-family="Segoe UI, Arial, sans-serif" font-size="15" font-weight="700" fill="#ffffff" text-anchor="middle">Mongo</text>
      <rect x="714" y="6" width="78" height="48" rx="10" fill="#659AD2"/>
      <text x="753.0" y="35.0" font-family="Segoe UI, Arial, sans-serif" font-size="15" font-weight="700" fill="#ffffff" text-anchor="middle">C</text>
      <rect x="816" y="6" width="78" height="48" rx="10" fill="#00599C"/>
      <text x="855.0" y="35.0" font-family="Segoe UI, Arial, sans-serif" font-size="15" font-weight="700" fill="#ffffff" text-anchor="middle">C++</text>
      <rect x="918" y="6" width="78" height="48" rx="10" fill="#F05032"/>
      <text x="957.0" y="35.0" font-family="Segoe UI, Arial, sans-serif" font-size="15" font-weight="700" fill="#ffffff" text-anchor="middle">Git</text>
      <rect x="1020" y="6" width="78" height="48" rx="10" fill="#ffffff"/>
      <text x="1059.0" y="35.0" font-family="Segoe UI, Arial, sans-serif" font-size="15" font-weight="700" fill="#111111" text-anchor="middle">GitHub</text>
      <rect x="1122" y="6" width="78" height="48" rx="10" fill="#ffffff"/>
      <text x="1161.0" y="35.0" font-family="Segoe UI, Arial, sans-serif" font-size="15" font-weight="700" fill="#111111" text-anchor="middle">Vercel</text>
      <rect x="1224" y="6" width="78" height="48" rx="10" fill="#00C7B7"/>
      <text x="1263.0" y="35.0" font-family="Segoe UI, Arial, sans-serif" font-size="15" font-weight="700" fill="#ffffff" text-anchor="middle">Netlify</text>
      <rect x="1326" y="6" width="78" height="48" rx="10" fill="#E44D26"/>
      <text x="1365.0" y="35.0" font-family="Segoe UI, Arial, sans-serif" font-size="15" font-weight="700" fill="#ffffff" text-anchor="middle">HTML</text>
      <rect x="1428" y="6" width="78" height="48" rx="10" fill="#1572B6"/>
      <text x="1467.0" y="35.0" font-family="Segoe UI, Arial, sans-serif" font-size="15" font-weight="700" fill="#ffffff" text-anchor="middle">CSS</text>
      <rect x="1530" y="6" width="78" height="48" rx="10" fill="#F7DF1E"/>
      <text x="1569.0" y="35.0" font-family="Segoe UI, Arial, sans-serif" font-size="15" font-weight="700" fill="#111111" text-anchor="middle">JS</text>
      <rect x="1632" y="6" width="78" height="48" rx="10" fill="#61DAFB"/>
      <text x="1671.0" y="35.0" font-family="Segoe UI, Arial, sans-serif" font-size="15" font-weight="700" fill="#111111" text-anchor="middle">React</text>
      <rect x="1734" y="6" width="78" height="48" rx="10" fill="#339933"/>
      <text x="1773.0" y="35.0" font-family="Segoe UI, Arial, sans-serif" font-size="15" font-weight="700" fill="#ffffff" text-anchor="middle">Node</text>
      <rect x="1836" y="6" width="78" height="48" rx="10" fill="#404040"/>
      <text x="1875.0" y="35.0" font-family="Segoe UI, Arial, sans-serif" font-size="15" font-weight="700" fill="#ffffff" text-anchor="middle">Express</text>
      <rect x="1938" y="6" width="78" height="48" rx="10" fill="#47A248"/>
      <text x="1977.0" y="35.0" font-family="Segoe UI, Arial, sans-serif" font-size="15" font-weight="700" fill="#ffffff" text-anchor="middle">Mongo</text>
      <rect x="2040" y="6" width="78" height="48" rx="10" fill="#659AD2"/>
      <text x="2079.0" y="35.0" font-family="Segoe UI, Arial, sans-serif" font-size="15" font-weight="700" fill="#ffffff" text-anchor="middle">C</text>
      <rect x="2142" y="6" width="78" height="48" rx="10" fill="#00599C"/>
      <text x="2181.0" y="35.0" font-family="Segoe UI, Arial, sans-serif" font-size="15" font-weight="700" fill="#ffffff" text-anchor="middle">C++</text>
      <rect x="2244" y="6" width="78" height="48" rx="10" fill="#F05032"/>
      <text x="2283.0" y="35.0" font-family="Segoe UI, Arial, sans-serif" font-size="15" font-weight="700" fill="#ffffff" text-anchor="middle">Git</text>
      <rect x="2346" y="6" width="78" height="48" rx="10" fill="#ffffff"/>
      <text x="2385.0" y="35.0" font-family="Segoe UI, Arial, sans-serif" font-size="15" font-weight="700" fill="#111111" text-anchor="middle">GitHub</text>
      <rect x="2448" y="6" width="78" height="48" rx="10" fill="#ffffff"/>
      <text x="2487.0" y="35.0" font-family="Segoe UI, Arial, sans-serif" font-size="15" font-weight="700" fill="#111111" text-anchor="middle">Vercel</text>
      <rect x="2550" y="6" width="78" height="48" rx="10" fill="#00C7B7"/>
      <text x="2589.0" y="35.0" font-family="Segoe UI, Arial, sans-serif" font-size="15" font-weight="700" fill="#ffffff" text-anchor="middle">Netlify</text>
      <rect x="2652" y="6" width="78" height="48" rx="10" fill="#E44D26"/>
      <text x="2691.0" y="35.0" font-family="Segoe UI, Arial, sans-serif" font-size="15" font-weight="700" fill="#ffffff" text-anchor="middle">HTML</text>
      <rect x="2754" y="6" width="78" height="48" rx="10" fill="#1572B6"/>
      <text x="2793.0" y="35.0" font-family="Segoe UI, Arial, sans-serif" font-size="15" font-weight="700" fill="#ffffff" text-anchor="middle">CSS</text>
      <rect x="2856" y="6" width="78" height="48" rx="10" fill="#F7DF1E"/>
      <text x="2895.0" y="35.0" font-family="Segoe UI, Arial, sans-serif" font-size="15" font-weight="700" fill="#111111" text-anchor="middle">JS</text>
      <rect x="2958" y="6" width="78" height="48" rx="10" fill="#61DAFB"/>
      <text x="2997.0" y="35.0" font-family="Segoe UI, Arial, sans-serif" font-size="15" font-weight="700" fill="#111111" text-anchor="middle">React</text>
      <rect x="3060" y="6" width="78" height="48" rx="10" fill="#339933"/>
      <text x="3099.0" y="35.0" font-family="Segoe UI, Arial, sans-serif" font-size="15" font-weight="700" fill="#ffffff" text-anchor="middle">Node</text>
      <rect x="3162" y="6" width="78" height="48" rx="10" fill="#404040"/>
      <text x="3201.0" y="35.0" font-family="Segoe UI, Arial, sans-serif" font-size="15" font-weight="700" fill="#ffffff" text-anchor="middle">Express</text>
      <rect x="3264" y="6" width="78" height="48" rx="10" fill="#47A248"/>
      <text x="3303.0" y="35.0" font-family="Segoe UI, Arial, sans-serif" font-size="15" font-weight="700" fill="#ffffff" text-anchor="middle">Mongo</text>
      <rect x="3366" y="6" width="78" height="48" rx="10" fill="#659AD2"/>
      <text x="3405.0" y="35.0" font-family="Segoe UI, Arial, sans-serif" font-size="15" font-weight="700" fill="#ffffff" text-anchor="middle">C</text>
      <rect x="3468" y="6" width="78" height="48" rx="10" fill="#00599C"/>
      <text x="3507.0" y="35.0" font-family="Segoe UI, Arial, sans-serif" font-size="15" font-weight="700" fill="#ffffff" text-anchor="middle">C++</text>
      <rect x="3570" y="6" width="78" height="48" rx="10" fill="#F05032"/>
      <text x="3609.0" y="35.0" font-family="Segoe UI, Arial, sans-serif" font-size="15" font-weight="700" fill="#ffffff" text-anchor="middle">Git</text>
      <rect x="3672" y="6" width="78" height="48" rx="10" fill="#ffffff"/>
      <text x="3711.0" y="35.0" font-family="Segoe UI, Arial, sans-serif" font-size="15" font-weight="700" fill="#111111" text-anchor="middle">GitHub</text>
      <rect x="3774" y="6" width="78" height="48" rx="10" fill="#ffffff"/>
      <text x="3813.0" y="35.0" font-family="Segoe UI, Arial, sans-serif" font-size="15" font-weight="700" fill="#111111" text-anchor="middle">Vercel</text>
      <rect x="3876" y="6" width="78" height="48" rx="10" fill="#00C7B7"/>
      <text x="3915.0" y="35.0" font-family="Segoe UI, Arial, sans-serif" font-size="15" font-weight="700" fill="#ffffff" text-anchor="middle">Netlify</text>
    </g>
  </g>
</svg>
